<svg xmlns="http://www.w3.org/2000/svg" viewBox="0 0 64 64" fill="none">
  <rect width="64" height="64" rx="14" fill="#2D932D"/>
  <g transform="translate(8 8)" stroke="#fff" stroke-width="4" stroke-linecap="round" stroke-linejoin="round">
    <path d="m28 26-16.762 16.76a2 2 0 0 1-6.002-6L22 20"/>
    <path d="M31.946 8.054A26 26 0 0 0 11.804 4.746c-2.796.684-2.184 4.316.554 5.202A39.8 39.8 0 0 1 24 16"/>
    <path d="M32.002 23.998a39.8 39.8 0 0 1 6.048 11.648c.888 2.738 4.52 3.352 5.206.556A26 26 0 0 0 40 16.138"/>
    <path d="M36.704 6.704a2.41 2.41 0 0 0-3.408 0l-10.592 10.592a2.41 2.41 0 0 0 0 3.408l4.592 4.592a2.41 2.41 0 0 0 3.408 0l10.592-10.592a2.41 2.41 0 0 0 0-3.408z"/>
  </g>
</svg>
